<svg id="闭合图标_拷贝" data-name="闭合图标 拷贝" xmlns="http://www.w3.org/2000/svg" width="23.75" height="21.25" viewBox="0 0 19 17">
  <metadata><?xpacket begin="﻿" id="W5M0MpCehiHzreSzNTczkc9d"?>
<x:xmpmeta xmlns:x="adobe:ns:meta/" x:xmptk="Adobe XMP Core 5.6-c138 79.159824, 2016/09/14-01:09:01        ">
   <rdf:RDF xmlns:rdf="http://www.w3.org/1999/02/22-rdf-syntax-ns#">
      <rdf:Description rdf:about=""/>
   </rdf:RDF>
</x:xmpmeta>
                                                                                                    
                                                                                                    
                                                                                                    
                                                                                                    
                                                                                                    
                                                                                                    
                                                                                                    
                                                                                                    
                                                                                                    
                                                                                                    
                                                                                                    
                                                                                                    
                                                                                                    
                                                                                                    
                                                                                                    
                                                                                                    
                                                                                                    
                                                                                                    
                                                                                                    
                                                                                                    
                           
<?xpacket end="w"?></metadata>
<defs>
    <style>
      .cls-1 {
        fill: #7b8896;
      }

      .cls-1, .cls-2 {
        stroke: #2b2c38;
        stroke-linejoin: round;
        stroke-width: 1px;
        fill-rule: evenodd;
      }

      .cls-2 {
        fill: #20c8c3;
      }
    </style>
  </defs>
  <path id="圆角矩形_10" data-name="圆角矩形 10" class="cls-1" d="M615,695.928h-4a0.99,0.99,0,1,1,0-1.979h4A0.99,0.99,0,1,1,615,695.928Zm0-4.949H603A0.99,0.99,0,1,1,603,689h12A0.99,0.99,0,1,1,615,690.979Zm-4,7.918h4a0.99,0.99,0,1,1,0,1.979h-4A0.99,0.99,0,1,1,611,698.9Z" transform="translate(-599.5 -686.5)"/>
  <path id="圆角矩形_12" data-name="圆角矩形 12" class="cls-2" d="M608.828,697.5l-0.088.088c-0.011.012-.015,0.027-0.026,0.039s-0.028.015-.04,0.026l-3.088,3.056a1.006,1.006,0,0,1-1.414,0,0.981,0.981,0,0,1,0-1.4l1.414-1.4H603a0.99,0.99,0,1,1,0-1.979h2.634l-1.348-1.334a0.949,0.949,0,0,1,0-1.352,0.974,0.974,0,0,1,1.366,0l2.622,2.6a0.97,0.97,0,0,1,.554.261A0.981,0.981,0,0,1,608.828,697.5Z" transform="translate(-599.5 -686.5)"/>
</svg>
