<svg id="闭合图标" xmlns="http://www.w3.org/2000/svg" width="23.75" height="22.5" viewBox="0 0 19 18">
  <metadata><?xpacket begin="﻿" id="W5M0MpCehiHzreSzNTczkc9d"?>
<x:xmpmeta xmlns:x="adobe:ns:meta/" x:xmptk="Adobe XMP Core 5.6-c138 79.159824, 2016/09/14-01:09:01        ">
   <rdf:RDF xmlns:rdf="http://www.w3.org/1999/02/22-rdf-syntax-ns#">
      <rdf:Description rdf:about=""/>
   </rdf:RDF>
</x:xmpmeta>
                                                                                                    
                                                                                                    
                                                                                                    
                                                                                                    
                                                                                                    
                                                                                                    
                                                                                                    
                                                                                                    
                                                                                                    
                                                                                                    
                                                                                                    
                                                                                                    
                                                                                                    
                                                                                                    
                                                                                                    
                                                                                                    
                                                                                                    
                                                                                                    
                                                                                                    
                                                                                                    
                           
<?xpacket end="w"?></metadata>
<defs>
    <style>
      .cls-1 {
        fill: #7b8896;
      }

      .cls-1, .cls-2 {
        stroke: #2b2c38;
        stroke-linejoin: round;
        stroke-width: 1px;
        fill-rule: evenodd;
      }

      .cls-2 {
        fill: #20c8c3;
      }
    </style>
  </defs>
  <path id="圆角矩形_10" data-name="圆角矩形 10" class="cls-1" d="M615,800H603a1,1,0,0,1,0-2h12A1,1,0,0,1,615,800Zm-12,3h4a1,1,0,0,1,0,2h-4A1,1,0,0,1,603,803Zm0,5h4a1,1,0,0,1,0,2h-4A1,1,0,0,1,603,808Z" transform="translate(-599.5 -795.5)"/>
  <path id="圆角矩形_12" data-name="圆角矩形 12" class="cls-2" d="M615,807h-2.586l1.414,1.414a1,1,0,0,1-1.414,1.414l-3.088-3.088c-0.012-.011-0.028-0.015-0.04-0.026s-0.015-.028-0.026-0.04l-0.088-.088a1,1,0,0,1,0-1.414,0.975,0.975,0,0,1,.554-0.264l2.622-2.622a0.966,0.966,0,0,1,1.366,1.366L612.365,805H615A1,1,0,0,1,615,807Z" transform="translate(-599.5 -795.5)"/>
</svg>
